<svg width="144" height="144" viewBox="0 0 144 144" xmlns="http://www.w3.org/2000/svg">
    <path
        d="M0 72C0 111.765 32.2355 144 72 144C111.764 144 144 111.765 144 72C144 32.2355 111.764 0 72 0C32.2355 0 0 32.2355 0 72ZM87.3422 11.4469C87.9328 11.6156 88.8047 11.9812 89.2547 12.2484C90.4219 12.9375 91.8 14.3719 92.4187 15.5391C93.3469 17.325 93.375 17.55 93.375 22.4859C93.375 24.9328 93.4453 27.9422 93.5297 29.1797C93.6422 30.8531 93.6422 32.8359 93.5156 36.9844C93.3609 41.9625 93.3187 42.5672 93.0938 42.75C92.9531 42.8625 92.6578 43.2281 92.4187 43.5516C92.2745 43.7583 91.9509 43.6732 91.927 43.4223L91.9125 43.2703C91.8703 42.7922 91.8562 40.0219 91.8844 37.125C91.9125 34.2281 91.8844 28.7859 91.8281 25.0312C91.7297 18.4641 91.7156 18.1828 91.4203 17.3391C90.5344 14.8922 88.6359 13.2188 86.2594 12.8109C85.725 12.7266 80.5219 12.6844 71.8594 12.7125C58.5281 12.7406 58.275 12.7406 57.4172 13.0359C56.1937 13.4438 55.4484 13.9078 54.5906 14.8219C53.7609 15.7078 53.1 16.9875 52.875 18.1406C52.6922 19.0828 52.5094 29.6859 52.5656 36.2812C52.5797 38.9531 52.6359 50.2453 52.7062 61.3828C52.8047 81.4922 52.8047 81.6328 53.1 82.35C53.4937 83.3203 54.1687 84.2625 54.8156 84.7828C55.5891 85.3875 57.1781 86.1469 58.05 86.3297C59.2453 86.5828 85.9641 86.5406 86.7797 86.2875C89.0016 85.6125 90.4078 84.2766 91.3641 81.9703C91.6875 81.1547 91.7297 80.9016 91.7016 79.3828C91.6875 78.4547 91.7156 77.4563 91.7719 77.1609C91.8562 76.6406 91.8703 76.6266 92.1234 76.8656C92.2916 77.017 92.4101 76.864 92.4484 76.641C92.4525 76.6171 92.4567 76.5934 92.4609 76.5703C92.4891 76.4156 92.4469 76.2469 92.3484 76.1906C92.2303 76.1118 92.3361 76.0211 92.4536 76.1008C92.5443 76.1624 92.6573 76.253 92.7703 76.3594C93.1922 76.7531 93.1922 76.7672 93.3047 78.75C93.4172 81.0703 93.3187 81.6609 92.5031 83.3906C91.6875 85.0922 90.4078 86.3438 88.5938 87.2438C87.8625 87.5953 86.9203 87.9609 86.4984 88.0312C86.0344 88.1156 80.4797 88.1719 72.0703 88.1719C58.5703 88.1719 58.3734 88.1719 57.4312 87.8766C54.1547 86.8781 51.9047 84.5297 51.2437 81.4219C51.0609 80.55 51.0328 79.8047 51.1031 77.2734C51.1453 75.5719 51.1875 66.5859 51.2016 57.3047V40.8096C51.2016 40.5693 51.093 40.3418 50.9062 40.1906C50.6391 39.9797 50.625 39.825 50.6391 38.0109C50.6391 36.2812 50.6812 36.0422 50.9203 35.775C51.1172 35.5641 51.2297 35.1984 51.2859 34.4672C51.3562 33.5531 51.3422 33.4266 51.0469 33.1172C50.7375 32.7797 50.7234 32.6672 50.7094 30.5719C50.6953 28.6172 50.7234 28.35 50.9484 28.2094C51.1734 28.0688 51.1875 27.6609 51.1875 22.9922C51.1875 17.4516 51.2297 17.1562 52.0453 15.4969C52.8469 13.8516 54.8859 12.1359 56.7984 11.5031C57.6984 11.1938 57.9937 11.1797 65.1797 11.0953C69.2859 11.0531 75.6984 11.0391 79.4391 11.0672C85.9781 11.1234 86.2875 11.1375 87.3422 11.4469Z"
        fill="#FFFFFF"
    />
</svg>