<svg width="144" height="144" viewBox="0 0 144 144" fill="none" xmlns="http://www.w3.org/2000/svg">
<path d="M0 72C0 111.765 32.2355 144 72 144C111.764 144 144 111.765 144 72C144 32.2355 111.764 0 72 0C32.2355 0 0 32.2355 0 72ZM87.3422 11.4469C87.9328 11.6156 88.8047 11.9812 89.2547 12.2484C90.4219 12.9375 91.8 14.3719 92.4187 15.5391C93.3469 17.325 93.375 17.55 93.375 22.4859C93.375 24.9328 93.4453 27.9422 93.5297 29.1797C93.6422 30.8531 93.6422 32.8359 93.5156 36.9844C93.3609 41.9625 93.3187 42.5672 93.0938 42.75C92.9531 42.8625 92.6578 43.2281 92.4187 43.5516C92.2745 43.7583 91.9509 43.6732 91.927 43.4223L91.9125 43.2703C91.8703 42.7922 91.8562 40.0219 91.8844 37.125C91.9125 34.2281 91.8844 28.7859 91.8281 25.0312C91.7297 18.4641 91.7156 18.1828 91.4203 17.3391C90.5344 14.8922 88.6359 13.2188 86.2594 12.8109C85.725 12.7266 80.5219 12.6844 71.8594 12.7125C58.5281 12.7406 58.275 12.7406 57.4172 13.0359C56.1937 13.4438 55.4484 13.9078 54.5906 14.8219C53.7609 15.7078 53.1 16.9875 52.875 18.1406C52.6922 19.0828 52.5094 29.6859 52.5656 36.2812C52.5797 38.9531 52.6359 50.2453 52.7062 61.3828C52.8047 81.4922 52.8047 81.6328 53.1 82.35C53.4937 83.3203 54.1687 84.2625 54.8156 84.7828C55.5891 85.3875 57.1781 86.1469 58.05 86.3297C59.2453 86.5828 85.9641 86.5406 86.7797 86.2875C89.0016 85.6125 90.4078 84.2766 91.3641 81.9703C91.6875 81.1547 91.7297 80.9016 91.7016 79.3828C91.6875 78.4547 91.7156 77.4563 91.7719 77.1609C91.8562 76.6406 91.8703 76.6266 92.1234 76.8656C92.2916 77.017 92.4101 76.864 92.4484 76.641C92.4525 76.6171 92.4567 76.5934 92.4609 76.5703C92.4891 76.4156 92.4469 76.2469 92.3484 76.1906C92.2303 76.1118 92.3361 76.0211 92.4536 76.1008C92.5443 76.1624 92.6573 76.253 92.7703 76.3594C93.1922 76.7531 93.1922 76.7672 93.3047 78.75C93.4172 81.0703 93.3187 81.6609 92.5031 83.3906C91.6875 85.0922 90.4078 86.3438 88.5938 87.2438C87.8625 87.5953 86.9203 87.9609 86.4984 88.0312C86.0344 88.1156 80.4797 88.1719 72.0703 88.1719C58.5703 88.1719 58.3734 88.1719 57.4312 87.8766C54.1547 86.8781 51.9047 84.5297 51.2437 81.4219C51.0609 80.55 51.0328 79.8047 51.1031 77.2734C51.1453 75.5719 51.1875 66.5859 51.2016 57.3047V40.8096C51.2016 40.5693 51.093 40.3418 50.9062 40.1906C50.6391 39.9797 50.625 39.825 50.6391 38.0109C50.6391 36.2812 50.6812 36.0422 50.9203 35.775C51.1172 35.5641 51.2297 35.1984 51.2859 34.4672C51.3562 33.5531 51.3422 33.4266 51.0469 33.1172C50.7375 32.7797 50.7234 32.6672 50.7094 30.5719C50.6953 28.6172 50.7234 28.35 50.9484 28.2094C51.1734 28.0688 51.1875 27.6609 51.1875 22.9922C51.1875 17.4516 51.2297 17.1562 52.0453 15.4969C52.8469 13.8516 54.8859 12.1359 56.7984 11.5031C57.6984 11.1938 57.9937 11.1797 65.1797 11.0953C69.2859 11.0531 75.6984 11.0391 79.4391 11.0672C85.9781 11.1234 86.2875 11.1375 87.3422 11.4469ZM68.0484 14.6391C68.2172 14.9484 68.2312 15.075 68.0625 15.4547C67.9641 15.6938 67.7531 15.975 67.5984 16.0594C67.3453 16.1859 67.2469 16.1438 66.9094 15.7641C66.4172 15.2156 66.4172 14.8641 66.8953 14.4844C67.3734 14.1188 67.7812 14.175 68.0484 14.6391ZM77.625 14.4844C77.9906 14.85 77.9766 15.2016 77.6109 15.6656C77.2594 16.1156 76.8656 16.1297 76.5844 15.7219C75.9094 14.7656 76.8375 13.6969 77.625 14.4844ZM61.0594 14.7234C61.1859 14.8641 61.4109 15.2438 61.5797 15.5813C62.0156 16.4391 62.7328 17.1844 63.5203 17.5781C63.9638 17.8091 64.4564 17.9297 64.9564 17.9297H72.2109C79.6078 17.9297 80.2828 17.9156 80.8875 17.6766C81.6047 17.3953 82.3641 16.65 82.8141 15.7922C83.4187 14.5969 83.8125 14.4141 85.4859 14.5125C86.8359 14.5969 87.5812 14.9344 88.5797 15.9328C89.55 16.9031 89.9719 17.8031 90.1406 19.2797C90.225 19.9828 90.2812 25.6078 90.2672 33.3984L90.2409 45.5049C90.2397 46.0529 90.1241 46.5946 89.9016 47.0953C89.4516 48.1359 89.2406 49.5984 89.3391 51.1734C89.4094 52.2984 89.4937 52.6359 89.8734 53.3813C90.1602 53.9641 90.3094 54.605 90.3094 55.2546V59.625C90.3094 64.2375 90.2812 65.0109 90.0984 65.2219C88.5938 66.8953 88.5094 70.8328 89.9297 73.1531C90.1969 73.5891 90.4219 74.1234 90.4219 74.3625C90.4219 74.7422 90.3797 74.7844 89.775 74.8688C88.8469 74.9953 80.1281 74.9813 80.1844 74.8406C80.2125 74.7844 80.55 74.2359 80.9578 73.6172C81.6047 72.6328 81.9 72.3375 83.475 71.1562C85.4016 69.7078 86.9062 68.3156 87.5953 67.3172C88.1297 66.5438 88.9172 64.3781 89.1281 63.1406C89.5359 60.6656 89.4375 57.4875 88.9172 56.4188C88.6219 55.8141 88.2 55.7016 87.2437 55.9688C86.4422 56.1938 85.9922 56.7984 85.5563 58.2047C85.3734 58.8094 84.9938 59.7938 84.7266 60.3703C84.4594 60.9609 84.0797 61.9734 83.8828 62.6344C83.6859 63.2812 83.4328 63.8578 83.3203 63.9C83.2078 63.9422 83.1094 63.9141 83.1094 63.8438C83.1094 63.6891 83.7703 61.9031 84.3047 60.6234C84.5156 60.1172 84.8391 59.175 85.0359 58.5141C85.2328 57.8531 85.6969 56.6438 86.0625 55.8141C86.7937 54.225 87.6797 52.0172 87.9328 51.1594C88.1578 50.4 87.9047 49.9219 87.2859 49.9219C87.0328 49.9219 86.7094 50.0063 86.5828 50.1047C86.4422 50.1891 85.9922 51.1875 85.5844 52.3125C84.0656 56.3766 83.9109 56.7141 83.3906 57.0234C82.5187 57.5438 81.8719 58.3313 81.225 59.6953C80.8734 60.4266 80.5219 61.0312 80.4656 61.0312C80.3953 61.0312 80.0437 61.2984 79.6781 61.6078C78.9047 62.2969 77.9625 64.0406 77.3578 65.9391C76.9922 67.0641 76.9219 67.1625 76.4156 67.4016C75.2906 67.9359 73.3219 69.0891 72.7312 69.5672C72.3228 69.9076 72.0287 69.7394 71.9951 69.2087C71.955 68.5756 71.9072 67.6234 71.8594 66.5719C71.6625 61.7484 70.9594 58.5422 69.5953 56.1797L69.2956 55.6679C69.1241 55.3751 69.1204 55.0134 69.2859 54.7172C69.4266 54.45 69.9469 53.8031 70.4531 53.2688L70.7193 52.9862C71.1187 52.5622 71.7177 52.3901 72.2812 52.5375C73.8703 52.9453 75.3328 52.6219 76.2469 51.6516C76.6687 51.2016 78.0469 48.4594 78.0469 48.0656C78.0469 47.8547 78.1594 47.8125 78.9047 47.8125C79.7203 47.8125 80.2406 47.6578 80.4797 47.3344C80.5359 47.25 80.55 46.2234 80.5078 45.0563C80.4094 43.0734 80.4375 42.8484 80.7891 41.4C81 40.5563 81.1969 39.3047 81.225 38.6016C81.2672 37.7578 81.3375 37.3219 81.4641 37.2797C81.8297 37.1672 82.8 36 83.1797 35.2406C83.5172 34.5375 83.5594 34.3266 83.5031 33.4969C83.4328 32.4844 83.1516 31.8094 82.5609 31.1766C81.9562 30.5156 81.5062 30.3609 79.8328 30.2484C78.1031 30.1359 78.3703 30.2344 75.4453 28.5609C73.7016 27.5625 72.9703 27.3656 71.0859 27.3656C67.8375 27.3797 65.3063 28.6453 63.7031 31.0219C62.4656 32.8922 62.3953 33.1875 62.2969 38.1797C62.2406 41.0484 62.1422 42.7359 62.0297 43.1016C61.4109 45.0422 60.0609 46.575 57.6562 48.0656C56.7703 48.6281 55.6594 49.3594 55.1812 49.6969C54.8234 49.9609 54.317 49.7084 54.3124 49.2638L54.2391 42.1453C54.1406 32.1047 54.2391 19.6313 54.4359 18.4922C54.8859 15.9891 56.8266 14.5125 59.7094 14.4984C60.6234 14.4844 60.8906 14.5266 61.0594 14.7234ZM74.4469 14.85C74.6297 15.3281 74.5312 15.7219 74.2219 15.8063C74.0391 15.8484 73.0969 15.8906 72.1125 15.8906C70.4812 15.8906 70.3266 15.8625 70.2422 15.6234C70.2 15.4688 70.2 15.1875 70.2562 14.9906C70.3056 14.7766 70.4962 14.625 70.7159 14.625H72.3516C74.0531 14.625 74.3766 14.6531 74.4469 14.85ZM104.316 18.7172C105.511 19.3359 106.397 20.2359 107.002 21.4594C107.831 23.1188 107.775 25.3266 106.861 27.0844C106.397 27.9844 106.073 28.4062 103.978 30.8672C103.191 31.7953 101.686 33.5953 100.631 34.8609C99.5766 36.1406 97.9734 37.9688 97.0734 38.925C95.4703 40.6266 95.4281 40.6688 95.3297 40.2891C95.2594 40.0781 95.2734 39.7547 95.3578 39.5578C95.4281 39.375 95.4844 37.0828 95.4984 34.4813C95.5125 31.8797 95.5547 29.1094 95.6109 28.3359C95.6953 27 95.6812 26.9156 95.3859 26.6063C95.0766 26.2969 95.0625 26.1984 95.0625 23.7656V22.5509C95.0625 21.7289 95.4412 20.9528 96.0891 20.4469C97.1578 19.5891 98.8875 18.7031 100.139 18.3516C100.645 18.2109 101.306 18.1547 102.136 18.1969C103.205 18.2391 103.5 18.3094 104.316 18.7172ZM45.8719 20.2359C47.7703 21.15 49.3594 23.5688 49.5844 25.875C49.6687 26.6203 49.6547 26.6625 49.2328 26.9016C48.9722 27.058 48.816 27.3427 48.8242 27.6465L48.8953 30.2766C48.9516 32.4844 49.0359 33.5109 49.1625 33.7781C49.4156 34.2563 49.4156 34.5234 49.1625 34.9172C49.0219 35.1422 48.9516 35.9156 48.9094 37.6594C48.8672 38.9953 48.8672 40.2469 48.9094 40.4438C48.9375 40.6406 49.1906 40.9359 49.4437 41.1188C49.6948 41.2861 49.7516 41.631 49.5675 41.87L48.9656 42.6516C48.4453 43.3125 47.7562 44.1844 47.4328 44.5781C47.0672 45.0141 46.8281 45.45 46.8281 45.6609C46.8281 46.0125 46.8422 46.0266 47.6578 45.9422C48.1219 45.9 48.6422 45.7734 48.825 45.6469C49.1484 45.4219 49.5703 45.3375 49.4578 45.5203C49.4156 45.5906 49.3734 53.7609 49.3453 63.7031C49.3031 83.0953 49.275 82.2375 50.0203 83.9391C50.6109 85.2891 52.2703 87.3 53.7328 88.4391C54.2391 88.8328 55.9688 89.6906 56.925 90.0141C57.7406 90.2953 60.7781 90.6047 62.0156 90.5484C62.8031 90.4922 62.8031 90.5906 61.9734 92.25C60.9609 94.275 59.2312 95.8219 57.2344 96.4547C55.4484 97.0172 52.4812 97.1859 50.7094 96.8203C49.6406 96.5953 47.3766 95.7656 46.0969 95.1188C44.6625 94.4016 43.0453 93.0797 41.4984 91.3641C38.9953 88.5797 37.4906 85.4297 36.9141 81.7734C36.6891 80.3531 36.675 79.0875 36.7594 65.8125C36.8016 57.8812 36.8859 49.8375 36.9281 47.9391L37.0065 45.1735C37.018 44.7667 37.3257 44.4297 37.7297 44.3813C38.6297 44.2547 39.1359 43.9875 39.3469 43.5234C39.7687 42.5953 39.5016 42.3281 38.0812 42.3281C36.7594 42.3281 36.7875 42.4125 37.3922 40.2328C37.9688 38.1234 39.5156 31.7531 39.5156 31.4859C39.5156 31.2891 39.7266 31.2469 40.6828 31.1906C42.5109 31.0922 43.425 30.3891 43.9453 28.6594C44.1984 27.8016 44.4937 24.3422 44.3812 23.5688C44.2125 22.4578 42.9047 21.2625 41.5828 21.0234C41.2875 20.9672 41.0766 20.8547 41.1047 20.7703C41.1187 20.7 41.4984 20.4469 41.9062 20.2219C42.6234 19.8281 42.7641 19.8141 43.9453 19.8563C44.9016 19.8984 45.3656 19.9828 45.8719 20.2359ZM41.9203 22.725C42.975 23.3156 43.0594 23.5969 42.8062 25.9453C42.5812 28.1953 42.4406 28.7859 42.0328 29.3063C41.7656 29.6438 41.6531 29.6719 40.7531 29.6719H40.7146C40.1987 29.6719 39.7937 29.2296 39.8391 28.7156C40.1063 25.5234 40.3875 22.6828 40.4297 22.5281C40.5281 22.2469 41.1891 22.3313 41.9203 22.725ZM72.9141 29.1797C73.3781 29.3063 74.5312 29.8406 75.4734 30.3891C77.6531 31.6266 77.6953 31.6406 79.3688 31.7672L79.9678 31.8156C80.4786 31.8569 80.9562 32.085 81.3094 32.4563C81.7734 32.9625 81.8438 33.1313 81.8438 33.6938C81.8438 34.8609 80.8031 36 79.7344 36C79.5976 36 79.5483 35.8195 79.6661 35.75L79.7906 35.6766C80.6484 35.1984 80.9016 34.7484 80.9016 33.75C80.9016 32.85 80.8172 32.6109 80.55 32.8781C80.3531 33.075 79.0594 33.0891 78.1875 32.9062C77.8359 32.8219 76.4859 32.2313 75.1641 31.5703C72.3375 30.15 71.4094 29.925 69.7219 30.2063C67.4016 30.6141 65.6016 32.2031 64.8281 34.5375C64.5047 35.5078 64.3219 35.6484 64.1813 35.0719C64.0406 34.5375 64.3641 33.2438 64.8562 32.3156C65.6016 30.8953 67.4297 29.4891 69.0187 29.1234C69.8906 28.9125 72.0141 28.9547 72.9141 29.1797ZM107.466 36.3797C108.858 37.0125 110.18 38.7 110.63 40.4156C110.897 41.4563 110.812 43.6781 110.475 44.4797C110.081 45.4219 109.378 46.2516 107.606 47.8406C106.65 48.6984 104.808 50.4281 103.514 51.6656C100.167 54.9281 99.7172 55.1953 97.5234 55.1672C95.3578 55.1391 94.2328 54.7453 92.9109 53.5641C91.7859 52.5656 91.1953 51.3281 91.1953 49.9922C91.2094 48.7406 91.6594 47.3906 92.3906 46.3922C93.5156 44.8875 100.519 37.9828 101.855 37.0688C103.092 36.2109 103.894 35.9859 105.469 36.0422C106.453 36.0703 106.973 36.1688 107.466 36.3797ZM76.4297 37.4203C77.1047 37.6453 77.7516 37.7438 78.4969 37.7438L78.5673 37.7447C79.1363 37.752 79.5938 38.2153 79.5938 38.7844C79.5938 39.4172 79.4672 40.2609 79.2844 40.9641C79.0172 41.9344 78.9609 42.4406 78.975 44.1844L78.9884 45.168C78.9966 45.7708 78.5227 46.2703 77.9203 46.2938C76.9641 46.3359 76.8516 46.3641 76.8375 46.6172C76.8375 46.7719 76.8234 47.1094 76.8094 47.3766C76.7938 47.6338 76.5742 47.8306 76.3169 47.8182L75.9094 47.7984C75.15 47.7422 75.0234 47.7844 74.9812 47.9953C74.9391 48.1781 75.0797 48.3047 75.5016 48.4734C76.0922 48.7125 76.2188 48.9234 75.8953 49.2047C75.7828 49.2891 75.6281 49.6125 75.5297 49.9078C75.4453 50.2172 75.1922 50.6109 74.9812 50.7656C74.6437 51.0469 74.4609 51.075 73.4062 51.0188C71.9437 50.9484 71.1 50.5547 69.975 49.3594C69.1734 48.5297 68.7656 47.8406 68.4703 46.8422C68.2734 46.1672 68.0344 45.9984 67.6969 46.2797C67.5141 46.4344 67.4859 46.6594 67.5281 47.4188C67.6266 48.6422 68.1469 49.7109 69.1453 50.7094L69.1705 50.7351C69.5868 51.159 69.6124 51.8299 69.2297 52.2844C68.1609 53.55 67.5563 54.3375 67.4578 54.5906C67.3312 54.9281 67.1906 54.9141 66.9516 54.5203C66.4453 53.7188 64.4625 51.4125 63.5625 50.5969C63.0141 50.0906 62.1141 49.4297 61.5797 49.1344C60.9 48.7588 60.8774 48.1183 61.3524 47.504C61.4927 47.3226 61.6461 47.1266 61.8047 46.9266C62.775 45.7172 62.9719 45.5344 63.5625 45.3656C64.4484 45.0984 65.0953 44.7609 65.5594 44.325C65.796 44.1137 66.1392 44.0722 66.4194 44.2209L66.6422 44.3391C67.8234 44.9859 69.0469 44.7891 69.0469 43.9594C69.0469 43.6922 68.9484 43.6078 68.4984 43.5375C66.5437 43.2281 65.7703 39.9375 67.4156 38.9391C68.2875 38.4047 69.5531 38.7 69.8906 39.5156C70.0312 39.8531 70.0312 40.1203 69.9047 40.7953C69.7078 41.7516 69.7641 41.8641 70.4109 41.9906C70.8047 42.075 70.8891 42.0188 71.1984 41.5125C71.4234 41.175 71.8594 40.7953 72.3234 40.5281C73.8703 39.6562 74.6719 38.5734 74.6719 37.3641V37.0243C74.6719 36.8219 74.8982 36.702 75.0656 36.8156C75.2766 36.9703 75.8953 37.2375 76.4297 37.4203ZM108.998 53.9578C111.445 55.1109 112.641 57.8391 112.064 60.975C111.727 62.7891 110.391 64.4344 106.27 68.0906C104.934 69.2719 102.994 71.0578 101.939 72.0844C99.8297 74.1375 99.0562 74.6297 97.6781 74.7844C96.5109 74.925 94.7531 74.7422 93.9937 74.4047C93.1359 74.0109 91.8703 72.7875 91.4062 71.8594C90.9141 70.8891 90.6328 69.5391 90.7594 68.7375C90.9844 67.2469 91.2094 66.9938 97.1297 61.1297C104.062 54.2672 104.4 53.9719 105.356 53.6766C106.495 53.325 107.887 53.4375 108.998 53.9578ZM58.0922 55.4062C60.8484 56.3344 62.9719 58.5563 64.1672 61.7344C64.4344 62.4656 64.7297 63.3234 64.8141 63.6328C64.9828 64.2656 66.0938 73.4906 66.0938 74.2641C66.0938 74.7844 66.0938 74.7844 65.4328 74.8406C64.995 74.8893 64.7109 74.6483 64.6697 74.2098C64.6356 73.8468 64.5928 73.3682 64.5469 72.8438C64.2516 69.1312 63.7031 64.7578 63.4078 63.7031C62.8312 61.5797 61.5938 59.4281 60.3703 58.3734C58.8656 57.0797 56.6578 56.2781 55.0969 56.4609L54.7428 56.4976C54.496 56.5231 54.2812 56.3294 54.2812 56.0813C54.2812 55.2516 54.45 55.1672 56.1516 55.1391C56.9109 55.125 57.5016 55.2094 58.0922 55.4062ZM92.5875 55.9266C92.9146 56.2152 93.1422 56.5726 93.19 57.0062C93.3285 58.2617 93.4961 60.9507 93.4312 61.3828C93.375 61.7484 93.1781 62.1141 92.8828 62.4375C92.6437 62.7047 92.3344 63.0703 92.2219 63.2531C92.0109 63.5625 91.9969 63.4078 91.8984 61.2422C91.8 59.1047 91.8422 58.05 92.0672 56.2078L92.0787 56.1157C92.1094 55.8701 92.4038 55.7607 92.5875 55.9266ZM98.0719 57.6562C98.1281 57.7125 98.0016 57.8812 97.7906 58.0219C97.5656 58.1625 96.9469 58.7391 96.3984 59.2875C96.0334 59.6629 95.3966 59.4117 95.3864 58.8881L95.3859 58.8656L95.3834 58.7395C95.3695 58.036 95.9483 57.4646 96.6516 57.4875C97.3687 57.5156 98.0016 57.5859 98.0719 57.6562ZM87.8625 57.9375C88.1156 58.4297 88.0031 61.7906 87.6937 62.9297C87.5956 63.2819 87.5093 63.5878 87.4338 63.8514C87.1669 64.7822 86.9681 64.7358 87.075 63.7734C87.3 61.9031 87.2859 59.8641 87.0609 58.95C86.8219 58.0078 86.9344 57.4875 87.3703 57.5438C87.5391 57.5719 87.75 57.7406 87.8625 57.9375ZM69.3281 59.4422C69.7922 60.9469 70.0172 62.2969 70.1578 64.6031C70.2984 66.6422 70.2 69.3 69.9609 70.4109C69.8625 70.8609 69.2016 71.5781 68.8922 71.5781C68.5547 71.5781 68.5547 71.3391 68.8641 69.3703C69.2156 67.1906 69.2156 60.9609 68.8641 59.5828C68.7375 59.0484 68.625 58.4859 68.625 58.3172C68.6391 58.0078 68.6391 58.0078 68.85 58.2891C68.9625 58.4437 69.1734 58.9641 69.3281 59.4422ZM83.4609 58.95C83.3625 59.4 83.0672 60.1312 82.0547 62.4797C81.6469 63.4078 81.4078 63.7734 81.1125 63.9281C80.55 64.2234 80.2687 64.7156 80.325 65.3484C80.3487 65.6485 80.6022 65.8781 80.9031 65.8721L81.0703 65.8688C81.9141 65.8547 83.8406 65.0953 84.3891 64.5609C84.6703 64.2656 84.8109 63.8719 85.05 62.6625C85.3453 61.1859 85.6266 60.4688 85.9219 60.4688C86.2312 60.4688 86.3016 61.2 86.2172 63.5766C86.1328 66.0234 86.1328 66.0516 85.7109 66.6703C85.0781 67.6125 83.6859 68.9062 82.3078 69.8484C80.8453 70.8609 79.5938 72.0422 79.5938 72.4359C79.5938 72.8719 79.2141 72.9141 78.7078 72.5062C78.4688 72.2953 77.8078 71.775 77.2453 71.3531C76.275 70.6078 76.2047 70.5797 75.7687 70.7203C75.5156 70.8047 74.3906 71.5078 73.2656 72.2812C69.8906 74.6016 69.4125 74.8547 68.4281 74.925C67.6266 74.9953 67.5844 74.9813 67.7812 74.7422C68.2312 74.2078 69.8906 73.0969 74.3906 70.3406C75.2062 69.8484 75.9656 69.3844 76.0781 69.3281C76.2328 69.2438 76.4719 69.3703 76.9219 69.7641C77.2594 70.0594 77.5828 70.3125 77.625 70.3125C77.6813 70.3125 77.6531 70.0594 77.5828 69.75C77.4422 69.2438 77.4703 69.1031 77.8641 68.2453C78.3703 67.1484 79.425 64.7719 79.8187 63.8438C79.9594 63.4922 80.4516 62.8172 80.8875 62.3391C81.4359 61.7484 81.8859 61.0594 82.2656 60.2297C82.8281 59.0062 83.1797 58.5 83.4187 58.5C83.5031 58.5 83.5172 58.6969 83.4609 58.95ZM104.161 73.8563C103.584 74.7281 102.797 76.0219 102.403 76.7109C102.023 77.4141 101.447 78.4125 101.137 78.9188C100.828 79.425 100.139 80.6625 99.6187 81.6609C97.425 85.8516 94.0641 91.7719 92.7281 93.8109C89.7891 98.2828 87.1453 101.095 83.5734 103.542C81.3234 105.089 79.8047 105.792 77.1328 106.481C75.0516 107.016 74.7422 107.058 72.9141 107.072C71.1844 107.072 70.7766 107.03 69.5812 106.706C66.1219 105.736 64.2516 104.667 63.2672 103.092C63.1406 102.895 62.5078 102.164 61.8469 101.489C60.7641 100.378 60.6094 100.266 60.2719 100.35C60.0609 100.406 59.85 100.533 59.8078 100.631C59.5969 101.194 61.0734 103.725 62.4094 105.089C64.1391 106.847 65.8828 107.789 68.9484 108.647C70.6219 109.111 74.0953 109.266 75.8672 108.942C75.9491 108.927 76.0292 108.913 76.1068 108.9C76.7186 108.795 76.9464 109.076 76.6687 109.631C76.4437 110.095 75.9516 111.277 75.6 112.261C74.7984 114.469 73.5891 117.562 73.4344 117.816C73.3359 117.956 72.9703 117.802 71.9156 117.197C71.1562 116.761 70.3688 116.283 70.1719 116.156C69.8484 115.931 65.2359 113.414 63.9422 112.753C63.6328 112.598 62.9859 112.233 62.4937 111.923C62.0016 111.628 61.0734 111.122 60.4406 110.798C59.7937 110.475 58.3594 109.688 57.2344 109.055C56.1094 108.422 54.0281 107.255 52.5938 106.453C51.1594 105.666 49.6406 104.808 49.2188 104.555C48.7969 104.302 47.9953 103.838 47.4328 103.514C46.8844 103.191 46.2516 102.769 46.0266 102.572C45.8156 102.389 45.5906 102.234 45.5344 102.234C45.3656 102.234 42.4266 100.758 39.6562 99.2672C38.1516 98.4516 36.4219 97.5375 35.8312 97.2281C35.2266 96.9328 34.7344 96.6375 34.7344 96.5953C34.7344 96.4266 37.3359 90.4641 37.6453 89.9438C37.7859 89.6906 37.8281 89.7188 38.0953 90.2391C38.8969 91.8141 43.0453 96.3281 43.6922 96.3281C43.8469 96.3281 44.2828 96.4969 44.6625 96.6938C46.9969 97.9313 48.2344 98.3813 50.4281 98.8031C52.2844 99.1547 55.1531 99.1266 56.5875 98.7469C58.2047 98.2969 59.7656 97.4109 61.0453 96.2156C62.3531 94.9922 62.9719 94.1766 63.8297 92.5453C64.5187 91.2516 64.9125 90.9141 66.0094 90.6609C66.3187 90.5906 70.8609 90.4922 76.0781 90.4219C84.2766 90.3375 85.7109 90.2812 86.625 90.0703C90.1687 89.2547 92.8828 87.2297 94.3031 84.3047C95.1609 82.5188 95.3719 81.4781 95.3156 79.2281L95.3054 78.7789C95.2877 77.9979 95.8991 77.3468 96.6797 77.3156C97.8328 77.2594 98.2828 77.1609 99.1969 76.7953C100.912 76.1063 101.32 75.8109 103.289 73.8281C104.287 72.8156 105.131 72.0563 105.159 72.1266C105.188 72.2109 104.737 72.9844 104.161 73.8563ZM73.8703 78.5531C75.6141 79.7906 75.5719 82.3359 73.7859 83.5031C72.9422 84.0516 71.6484 84.0516 70.7062 83.4891C70.0031 83.0813 69.3984 82.2375 69.2438 81.45C69.0891 80.6625 69.4406 79.6078 70.0875 78.9609C70.7906 78.2719 71.3812 78.0469 72.4641 78.1031C73.0969 78.1312 73.3922 78.2297 73.8703 78.5531ZM31.6547 96.975C31.9781 97.1719 32.5125 97.4531 32.8359 97.5938C33.4125 97.8469 39.8531 101.306 40.1484 101.531C40.2328 101.588 41.1469 102.094 42.1875 102.656C43.2281 103.219 44.6203 103.978 45.2812 104.344C45.9422 104.723 48.0234 105.891 49.9219 106.945C51.8203 108.014 53.5922 109.013 53.8594 109.167C54.1266 109.322 55.3922 110.011 56.6719 110.7C57.9516 111.403 59.4 112.205 59.9062 112.5C60.7922 113.006 63.8719 114.708 65.8828 115.805C66.4313 116.1 68.1891 117.084 69.7922 118.013C71.3953 118.927 73.5047 120.094 74.4609 120.6C75.4313 121.106 76.2188 121.584 76.2188 121.655C76.2188 121.894 75.6422 122.948 74.9672 123.961C74.6016 124.495 73.9969 125.55 73.6312 126.281C73.2516 127.013 72.8297 127.8 72.7031 128.039C72.5625 128.264 72.0281 129.375 71.5078 130.5C70.9875 131.625 70.4531 132.652 70.3266 132.778C70.0734 133.045 70.7344 133.397 63.9844 129.347C63.0141 128.77 61.4953 127.898 60.6094 127.406C59.7234 126.914 57.4453 125.62 55.5469 124.523C51.9469 122.442 43.4672 117.633 40.9219 116.227C40.1063 115.777 38.6859 114.947 37.7578 114.398C36.8297 113.836 35.1281 112.866 33.9609 112.219C32.8078 111.586 31.2891 110.728 30.5859 110.32C27.9984 108.83 26.7469 108.141 25.9734 107.803C25.5516 107.606 25.1578 107.395 25.1156 107.325C25.0172 107.17 25.4672 106.214 26.1281 105.188C26.3953 104.766 27.4219 102.923 28.4062 101.109C30.1781 97.8188 30.8812 96.6094 31.0078 96.6094C31.05 96.6094 31.3453 96.7781 31.6547 96.975ZM86.4 107.255C86.4422 107.395 86.6109 108.436 86.7656 109.575C86.9203 110.714 87.1172 111.783 87.2156 111.938C87.5812 112.528 88.1859 112.753 90.1266 112.992C91.8281 113.189 92.5312 113.358 92.5312 113.569C92.5312 113.766 91.4484 114.033 89.8594 114.244C87.7922 114.525 87.3844 114.666 87.1312 115.158C86.8781 115.664 86.625 117.478 86.625 118.828C86.625 119.798 86.5828 119.995 86.3156 120.263C86.0344 120.544 86.0062 120.544 85.8234 120.305C85.6266 120.023 85.5984 119.756 85.5703 118.266C85.5422 117.127 85.1766 115.102 84.9375 114.82C84.6844 114.511 83.925 114.328 82.1813 114.188C80.4656 114.047 80.2125 113.977 80.1 113.681C79.9875 113.386 80.4234 113.231 82.0687 112.978C82.9125 112.852 83.8125 112.683 84.0797 112.598C84.6844 112.388 85.1766 111.698 85.275 110.911C85.3172 110.588 85.4016 109.8 85.4859 109.167C85.6969 107.508 86.1609 106.523 86.4 107.255Z" fill="white"/>
<path d="M71.7609 21.1922C71.7047 21.3328 71.6625 22.2047 71.6484 23.1469C71.6484 24.975 71.7609 25.3125 72.3656 25.3125C72.9703 25.3125 73.125 24.8484 73.125 22.9922C73.125 21.8531 73.0687 21.2344 72.9562 21.1219C72.6891 20.8547 71.8734 20.9109 71.7609 21.1922Z" fill="white"/>
<path d="M64.842 22.6964C64.6481 22.9072 64.6079 23.2172 64.7415 23.4705L65.3201 24.5667C66.3467 26.5214 66.4029 26.5777 66.8951 26.212C67.1201 26.0433 67.3029 25.7902 67.3311 25.6214C67.3873 25.298 66.3467 23.1464 65.9107 22.6683C65.5451 22.2745 65.2357 22.2745 64.842 22.6964Z" fill="white"/>
<path d="M78.9324 22.4716C78.6371 22.6544 77.3152 25.1013 77.2449 25.5935C77.1605 26.17 77.4277 26.4794 77.9339 26.4091C78.2855 26.3669 78.6652 25.8466 79.5652 24.1591C80.1277 23.1325 80.1418 23.0763 79.9027 22.8091C79.6214 22.4857 79.1714 22.3169 78.9324 22.4716Z" fill="white"/>
<path d="M83.3344 27.6328C82.5891 28.2938 81.9844 28.9266 81.9844 29.025C81.9844 29.2922 82.4484 29.6719 82.7719 29.6719C82.9266 29.6719 83.3344 29.4328 83.6859 29.1375C84.0516 28.8563 84.6 28.4203 84.9094 28.1953C85.2328 27.9563 85.5281 27.6891 85.5703 27.5906C85.7109 27.2391 85.1344 26.4375 84.7266 26.4375C84.6984 26.4375 84.0797 26.9719 83.3344 27.6328Z" fill="white"/>
<path d="M59.1607 26.9859C58.8372 27.5344 58.8654 27.7313 59.245 27.9703C59.4138 28.0828 60.0044 28.5328 60.5529 28.9969C61.1013 29.4469 61.6779 29.8125 61.8466 29.8125C62.2263 29.8125 62.6341 29.2219 62.5075 28.8281C62.395 28.4766 59.9763 26.5781 59.6388 26.5781C59.5122 26.5781 59.3013 26.7609 59.1607 26.9859Z" fill="white"/>
<path d="M85.8939 31.8659C85.008 32.344 84.6705 32.6674 84.9236 32.8221C85.0923 32.9346 87.2861 31.8237 87.3705 31.5846C87.5251 31.2049 86.9205 31.3174 85.8939 31.8659Z" fill="white"/>
<path d="M55.8002 35.6063C55.4768 35.9297 55.4768 36.1687 55.8002 36.4641C56.0111 36.6609 56.3908 36.7031 57.8814 36.7031C59.1189 36.7031 59.7658 36.6469 59.8783 36.5344C60.1033 36.3094 60.0893 35.7891 59.8783 35.6063C59.7799 35.5359 58.8799 35.4375 57.8814 35.4094C56.2643 35.3531 56.0393 35.3672 55.8002 35.6063Z" fill="white"/>
<path d="M84.7406 35.6063C84.6141 35.775 84.5156 36.0281 84.5156 36.1547C84.5156 36.6328 84.8531 36.7172 86.7797 36.675L88.2506 36.6421C88.4981 36.6365 88.7149 36.4748 88.7906 36.2391C89.0719 35.4656 88.8469 35.3672 86.7938 35.325C85.0219 35.2969 84.9516 35.2969 84.7406 35.6063Z" fill="white"/>
<path d="M58.7531 41.7656C57.825 42.4547 57.5297 42.9188 57.7125 43.3828C57.7547 43.4953 57.8813 43.5938 57.9938 43.5938C58.2891 43.5938 60.525 42.0469 60.5813 41.8078C60.6516 41.5406 60.2156 41.0625 59.9203 41.0625C59.7938 41.0766 59.2735 41.3859 58.7531 41.7656Z" fill="white"/>
<path d="M82.8701 41.4558C82.7717 41.512 82.6732 41.723 82.6592 41.9058C82.631 42.1589 82.7998 42.3839 83.4607 42.9183C84.8529 44.0574 85.6826 44.3949 86.0623 43.9589C86.4279 43.4949 86.1607 43.1152 84.8248 42.2152C83.5451 41.3574 83.2217 41.2308 82.8701 41.4558Z" fill="white"/>
<path d="M79.2278 50.6959C78.8903 51.2022 79.0731 51.5397 80.4794 52.9319C81.7169 54.1694 81.745 54.1834 82.1106 53.9865C82.8137 53.5928 82.6731 53.199 81.3512 51.7084C80.0294 50.2178 79.6497 50.049 79.2278 50.6959Z" fill="white"/>
<path d="M77.3859 55.9685C76.5844 56.1372 76.2188 56.3481 76.2188 56.6716C76.2188 56.8825 76.3594 56.9528 77.1187 57.0231C78.5531 57.1778 80.5641 57.0653 80.7188 56.8122C80.9578 56.4606 80.8031 56.1935 80.2969 56.0106C79.7344 55.8138 78.2578 55.7997 77.3859 55.9685Z" fill="white"/>
<path d="M95.8359 45.3521C95.1187 45.8443 94.1906 46.7162 93.5016 47.574C93.0234 48.1787 92.9531 48.3474 92.9531 48.9943C92.9531 50.0068 93.4594 50.949 94.5422 51.9896C96.0891 53.4662 97.2562 53.9302 98.5781 53.5787C99.0984 53.4521 99.4359 53.1849 100.491 52.1021C101.939 50.6256 102.459 49.7537 102.333 48.9943C102.234 48.3756 101.152 46.8568 100.364 46.224C99.3656 45.4084 98.6203 45.099 97.4531 45.0287C96.4828 44.9724 96.3562 45.0006 95.8359 45.3521ZM98.6906 46.8146C98.9719 46.9693 99.4078 47.2927 99.6609 47.5599C100.139 48.0662 100.828 49.0506 100.828 49.2334C100.828 49.3881 99.6187 50.8224 98.8594 51.5677C98.1281 52.3131 97.65 52.3552 96.7359 51.7646C95.6391 51.0615 94.5 49.6271 94.5 48.9521C94.5 48.5724 95.1469 47.8552 96.3984 46.8427C96.8906 46.449 97.0312 46.3927 97.5656 46.4631C97.8891 46.5052 98.3953 46.6599 98.6906 46.8146Z" fill="white"/>
<path d="M67.8375 40.5707C67.7391 40.8379 67.6406 41.1192 67.6406 41.2035C67.6406 41.4707 68.3016 41.3442 68.6109 41.0067C69.0188 40.5707 68.9062 40.0785 68.4 40.0785C68.1328 40.0785 68.0063 40.191 67.8375 40.5707Z" fill="white"/>
<path d="M76.5139 40.5425C76.0217 40.7113 75.6561 41.1191 75.8389 41.2878C76.0076 41.4706 78.3842 41.3441 78.4967 41.1613C78.6936 40.8378 78.6092 40.5284 78.2998 40.4441C77.8076 40.3175 77.0483 40.3597 76.5139 40.5425Z" fill="white"/>
<path d="M76.4015 42.1448C76.1765 42.2292 76.1625 43.1995 76.3875 43.4245C76.8375 43.8745 77.4843 43.4667 77.4843 42.7214C77.4843 42.1589 76.9922 41.8917 76.4015 42.1448Z" fill="white"/>
<path d="M95.9766 64.6029C95.5828 64.7857 94.3594 65.981 92.9812 67.5279C92.4609 68.1185 92.3906 68.2732 92.3906 68.8638C92.3906 70.6357 94.7391 72.956 96.75 73.1951C98.0156 73.3357 98.3953 73.1529 99.675 71.7466C101.728 69.4966 101.897 68.9763 101.109 67.4013C100.041 65.2779 97.5375 63.8998 95.9766 64.6029ZM98.1562 66.3185C98.7328 66.7123 99.5766 67.542 99.7875 67.9498C100.195 68.7373 100.069 69.0466 98.7047 70.4951C98.0016 71.2404 97.3406 71.8591 97.2281 71.8591C96.8625 71.8591 95.6391 71.1701 95.0484 70.6357C94.4578 70.1013 93.9375 69.2435 93.9375 68.7935C93.9375 68.6529 94.4859 67.9779 95.175 67.317C96.3844 66.1076 96.4125 66.0935 97.1016 66.0935C97.5234 66.0935 97.9453 66.192 98.1562 66.3185Z" fill="white"/>
<path d="M92.6018 57.2344C92.7424 57.3891 92.9112 57.5156 92.9815 57.5156C93.0377 57.5156 92.9674 57.3891 92.8127 57.2344C92.6581 57.0797 92.4893 56.9531 92.4331 56.9531C92.3909 56.9531 92.4612 57.0797 92.6018 57.2344Z" fill="white"/>
<path d="M31.0359 100.224C30.375 101.391 29.1094 103.753 28.2375 105.455C27.9397 106.043 28.1625 106.761 28.7407 107.076L29.2219 107.339C34.1297 110.053 36.9141 111.628 41.0625 114.047C42.4125 114.835 44.6625 116.114 46.0547 116.888C47.4469 117.661 49.4437 118.786 50.4844 119.391C54 121.402 56.5875 122.864 58.0078 123.638C59.6812 124.538 66.4734 128.461 67.7812 129.263C68.2875 129.572 68.8359 129.952 68.9906 130.106C69.148 130.25 69.3979 130.207 69.4994 130.02L70.2844 128.574C72.7031 124.13 73.6875 122.316 73.6875 122.274C73.6875 122.246 73.0406 121.894 72.2531 121.486C71.4516 121.092 70.1156 120.375 69.2578 119.883C68.4141 119.405 67.1484 118.702 66.4453 118.336C65.7562 117.971 64.6734 117.366 64.0547 117C63.4359 116.621 62.0156 115.819 60.8906 115.214C57.2906 113.246 50.4422 109.449 49.5 108.9C48.9937 108.619 48.0516 108.085 47.3906 107.719C41.6531 104.569 38.2219 102.656 37.8281 102.375C37.4344 102.108 31.8656 99.1408 31.7391 99.1408C31.6969 99.1408 31.3875 99.633 31.0359 100.224ZM33.4406 102.614C34.6641 103.289 36.225 104.428 36.3375 104.71C36.45 105.005 36.1828 105.328 35.8594 105.328C35.5922 105.328 32.9484 104.049 32.3156 103.613C31.8937 103.317 31.8094 102.853 32.0625 102.361C32.2594 101.996 32.3719 102.01 33.4406 102.614ZM32.5547 105.371C33.4125 105.891 33.5391 106.017 33.5391 106.383C33.5391 106.763 33.4969 106.805 33.1312 106.763C32.6531 106.706 32.0344 106.425 31.4016 105.933C31.0641 105.68 30.9375 105.483 30.9375 105.174C30.9375 104.583 31.3594 104.639 32.5547 105.371ZM39.1078 105.905C39.3187 105.989 39.5578 106.2 39.6562 106.397C39.8109 106.678 39.8109 106.777 39.5859 107.016C39.2906 107.353 38.7141 107.381 38.3062 107.086C38.0109 106.889 37.7578 105.975 37.9125 105.722C37.9969 105.581 38.475 105.652 39.1078 105.905ZM41.6953 107.494C42.3422 107.775 42.6656 108.267 42.4828 108.76C42.3 109.21 41.8219 109.252 41.2875 108.83C41.0062 108.605 40.9219 108.422 40.9219 108.014C40.9219 107.55 41.0062 107.297 41.1609 107.297C41.1891 107.297 41.4281 107.381 41.6953 107.494ZM44.8734 109.449C45.2531 109.702 45.3516 109.856 45.3516 110.236C45.3516 110.897 45.0141 111.08 44.3813 110.771C43.8188 110.503 43.65 110.081 43.8609 109.505C44.0437 109.041 44.2547 109.027 44.8734 109.449ZM50.3719 112.585C50.8359 112.824 51.1875 113.456 51.1875 114.047C51.1875 114.905 50.0203 114.933 49.3594 114.075C49.05 113.696 49.0078 113.147 49.2188 112.571C49.3734 112.177 49.5562 112.177 50.3719 112.585Z" fill="white"/>
</svg>
